<svg xmlns="http://www.w3.org/2000/svg" height="400pt" viewBox="-8 0 399 400" width="400pt" class="svg replaced-svg"><g fill="none"><path d="M118.727 220c-50.856-39.652-78.055-77.973-64.98-97.809 12.769-19.379 60.679-16.14 120.972 4.782 9.93-50.618 27.715-86.875 48.613-95.168C214.122 17.883 203.629 10 192.496 10c-24.805 0-46.422 39.102-57.777 96.973-60.293-20.922-108.2-24.16-120.973-4.782C.672 122.027 27.871 160.348 78.726 200c-50.855 39.652-78.054 77.973-64.98 97.809 5.809 8.82 18.914 12.937 37.133 12.855-3.977-21.086 22.55-55.348 67.848-90.664zM290.27 126.973c32.859-11.399 62.02-17.535 83.84-17.637a19.392 19.392 0 0 0-2.864-7.145c-10.355-15.714-43.816-16.554-88.25-5.156 2.742 9.258 5.184 19.278 7.274 29.938zM174.719 313.027c-11.399 3.957-22.364 7.278-32.727 9.938C154.145 363.973 172.258 390 192.496 390c3.14-.012 6.25-.621 9.16-1.8-11.304-17.09-20.68-43.278-26.937-75.173zm0 0"/></g><path d="M192.496 400c-15.762 0-38.32-10.816-56.293-62.355-12.871-36.918-19.96-85.801-19.96-137.645s7.089-100.727 19.96-137.645C154.176 10.816 176.734 0 192.496 0c15.758 0 38.316 10.816 56.29 62.355 12.87 36.918 19.96 85.801 19.96 137.645s-7.09 100.727-19.96 137.645C230.811 389.184 208.253 400 192.495 400zm0-380c-12.738 0-26.719 18.3-37.402 48.941-12.156 34.86-18.852 81.399-18.852 131.059s6.696 96.2 18.848 131.059C165.777 361.699 179.758 380 192.496 380c12.734 0 26.719-18.3 37.399-48.941 12.156-34.856 18.847-81.403 18.847-131.059s-6.691-96.2-18.847-131.059C219.215 38.301 205.23 20 192.496 20zm0 0"/><path d="M333.809 209.918A384.407 384.407 0 0 0 322.242 200c3.996-3.3 7.852-6.61 11.567-9.918 19.304-17.246 43.539-42.727 49.37-66.172 3.25-13.07-.156-22.02-3.581-27.222-11.711-17.766-41.77-22-86.938-12.223-30.137 6.52-64.722 18.762-100.164 35.3-35.445-16.535-70.027-28.777-100.168-35.3-45.164-9.774-75.226-5.547-86.933 12.222-3.43 5.2-6.836 14.153-3.582 27.223 5.828 23.445 30.066 48.926 49.37 66.172A384.184 384.184 0 0 0 62.747 200a403.74 403.74 0 0 0-11.562 9.918C31.879 227.164 7.64 252.645 1.813 276.09c-3.254 13.07.152 22.02 3.582 27.222 7.597 11.532 22.925 17.36 45.097 17.36 11.992 0 25.988-1.707 41.844-5.137 30.137-6.52 64.719-18.762 100.164-35.3 35.441 16.535 70.027 28.777 100.164 35.3 15.856 3.43 29.848 5.137 41.84 5.137 22.168 0 37.5-5.828 45.101-17.36 3.426-5.199 6.833-14.152 3.583-27.222-5.84-23.445-30.075-48.926-49.38-66.172zm1.312-110.625c14.543 0 24.2 2.969 27.774 8.398.664 1.012 2.69 4.086.875 11.391-2.079 8.363-10.465 26.766-43.29 56.086a382.907 382.907 0 0 1-14.312 12.144 615.888 615.888 0 0 0-74.773-47.843 679.738 679.738 0 0 0-15.649-8.301c51.086-22.234 93.176-31.875 119.375-31.875zM289.72 200a604.328 604.328 0 0 1-67.918 42.988c-9.992 5.465-19.758 10.508-29.301 15.13-9.531-4.63-19.305-9.673-29.313-15.13A603.573 603.573 0 0 1 95.273 200a604.278 604.278 0 0 1 67.915-42.988c10-5.469 19.769-10.512 29.308-15.125 9.531 4.629 19.3 9.672 29.305 15.125A604.328 604.328 0 0 1 289.719 200zM64.508 175.168c-32.82-29.32-41.207-47.727-43.29-56.086-1.816-7.305.212-10.379.876-11.39 3.582-5.43 13.226-8.399 27.773-8.399 26.2 0 68.293 9.64 119.371 31.875a696.303 696.303 0 0 0-15.648 8.3 616.59 616.59 0 0 0-74.77 47.84 382.312 382.312 0 0 1-14.312-12.14zm-42.414 117.14c-.664-1.011-2.692-4.085-.875-11.39 2.082-8.36 10.468-26.766 43.289-56.086 4.531-4.05 9.32-8.102 14.312-12.14a616.59 616.59 0 0 0 74.77 47.84 665.057 665.057 0 0 0 15.652 8.3C89.801 303.414 32.117 307.52 22.094 292.309zm340.8 0c-3.578 5.43-13.222 8.399-27.769 8.399-26.203 0-68.293-9.64-119.371-31.875a696.303 696.303 0 0 0 15.648-8.3 616.241 616.241 0 0 0 74.766-47.84c5 4.042 9.773 8.09 14.316 12.14 32.82 29.32 41.207 47.727 43.286 56.086 1.816 7.305-.211 10.383-.875 11.39zm0 0"/></svg>