<svg xmlns="http://www.w3.org/2000/svg" height="400pt" viewBox="0 -22 400 400" width="400pt" class="svg replaced-svg"><path d="M50 256.008V9.992c-22.09 0-40 17.91-40 40v256.016c0 22.09 17.91 40 40 40h300c22.09 0 40-17.91 40-40v-10H90c-22.09 0-40-17.91-40-40zm0 0" fill="none"/><path d="M198.41 99.574c-17.422 0-31.594-14.398-31.594-32.105s14.172-32.106 31.594-32.106c17.418 0 31.59 14.403 31.59 32.106s-14.172 32.105-31.59 32.105zm0-44.21c-6.687-.294-12.344 4.89-12.633 11.577-.293 6.684 4.891 12.34 11.575 12.633 6.687.293 12.343-4.89 12.636-11.574.008-.176.012-.352.012-.527.133-6.543-5.05-11.957-11.59-12.11zM127.953 99.574c-17.418 0-31.59-14.398-31.59-32.105s14.172-32.106 31.59-32.106 31.594 14.399 31.594 32.106-14.172 32.105-31.594 32.105zm0-44.21c-6.683-.294-12.34 4.89-12.633 11.577-.289 6.684 4.895 12.34 11.578 12.633 6.688.293 12.344-4.89 12.637-11.574.008-.176.012-.352.012-.527.133-6.543-5.05-11.957-11.594-12.11zM61.816 99.574c-17.418 0-31.59-14.398-31.59-32.105s14.172-32.106 31.59-32.106c17.422 0 31.594 14.399 31.594 32.106S79.238 99.574 61.816 99.574zm0-44.21c-6.683-.29-12.34 4.894-12.629 11.577-.292 6.688 4.891 12.34 11.579 12.633 6.683.293 12.34-4.89 12.632-11.574.008-.176.012-.352.012-.527.137-6.543-5.05-11.961-11.594-12.11zm0 0"/><path d="M400 50c0-27.613-22.387-50-50-50H50C22.387 0 0 22.387 0 50v256c0 27.613 22.387 50 50 50h300c27.613 0 50-22.387 50-50zM50 20h300c16.559.016 29.98 13.434 30 29.992V124H20V49.992C20.02 33.434 33.441 20.016 50 20zm300 316H50c-16.559-.016-29.98-13.434-30-29.992V144h360v162.008c-.02 16.558-13.441 29.976-30 29.992zm0 0"/></svg>